<?xml version="1.0" standalone="no"?>
<!DOCTYPE svg PUBLIC "-//W3C//DTD SVG 20010904//EN"
 "http://www.w3.org/TR/2001/REC-SVG-20010904/DTD/svg10.dtd">
<svg version="1.0" xmlns="http://www.w3.org/2000/svg"
 width="980.000000pt" height="998.000000pt" viewBox="0 0 980.000000 998.000000"
 preserveAspectRatio="xMidYMid meet">
<metadata>
Created by potrace 1.15, written by Peter Selinger 2001-2017
</metadata>
<g transform="translate(0.000000,998.000000) scale(0.100000,-0.100000)"
fill="#000000" stroke="none">
<path d="M2467 9963 c-3 -5 -13 -65 -22 -135 -22 -157 -20 -169 82 -383 118
-250 126 -283 72 -310 -17 -9 -36 -14 -43 -12 -7 3 -61 99 -120 215 -65 129
-120 224 -143 247 -36 37 -239 145 -272 145 -14 0 -20 -23 -35 -124 -27 -178
-24 -193 81 -412 94 -197 107 -232 95 -250 -11 -17 -75 -54 -94 -54 -21 0 -79
89 -170 263 -40 77 -90 157 -111 179 -43 44 -205 128 -248 128 -14 0 -32 -6
-38 -14 -20 -24 -43 -158 -39 -231 3 -63 11 -86 82 -235 129 -270 134 -288 75
-309 -60 -21 -87 12 -192 229 -88 183 -113 210 -251 275 -121 58 -131 60 -154
37 -23 -23 -42 -120 -42 -210 0 -75 13 -114 102 -312 39 -85 73 -171 75 -191
5 -32 2 -37 -25 -48 -65 -27 -69 -22 -172 186 -52 105 -108 206 -125 223 -39
41 -272 157 -286 143 -6 -6 -22 -66 -36 -134 -31 -155 -28 -170 68 -374 111
-234 115 -252 60 -275 -54 -22 -76 4 -206 258 -38 73 -73 126 -99 150 -41 38
-263 158 -273 148 -3 -2 -18 -72 -34 -155 l-29 -150 94 -190 c52 -104 98 -203
104 -220 12 -35 5 -44 -83 -93 -33 -19 -65 -45 -72 -58 -33 -64 1 -199 77
-313 181 -271 584 -445 888 -383 141 29 247 71 732 291 l145 65 64 -132 c91
-191 1888 -4033 2531 -5413 421 -903 854 -1823 872 -1853 14 -22 26 -32 37
-29 17 5 324 146 328 151 6 5 -314 693 -1940 4171 -1483 3173 -1520 3253
-1513 3270 2 7 137 79 298 160 314 158 420 218 510 289 213 169 351 507 317
777 -18 143 -52 229 -156 391 l-43 68 -57 -29 c-32 -16 -70 -31 -86 -35 -34
-8 -39 -1 -152 229 -46 94 -100 189 -119 211 -25 29 -71 59 -164 107 -137 71
-138 71 -145 60z"/>
<path d="M4890 9094 c-120 -32 -196 -104 -265 -249 -54 -114 -94 -239 -189
-591 -41 -155 -80 -293 -85 -308 -13 -32 -36 -41 -128 -50 -120 -10 -481 -74
-634 -111 -475 -116 -736 -256 -835 -446 -38 -73 -41 -181 -5 -248 111 -210
468 -380 1036 -491 110 -22 237 -47 283 -56 45 -9 82 -19 82 -22 0 -2 -42 -48
-93 -101 -150 -156 -202 -285 -200 -496 2 -259 82 -414 293 -570 50 -36 101
-82 114 -103 14 -20 42 -89 64 -152 100 -290 281 -693 397 -880 268 -432 577
-658 942 -689 127 -11 538 4 625 23 416 90 861 671 1137 1480 71 207 88 235
187 306 150 109 234 223 285 390 20 61 24 98 24 200 0 111 -3 135 -29 214 -36
109 -98 205 -195 301 -39 38 -71 72 -71 76 0 4 37 14 83 23 45 9 172 34 282
56 376 74 671 176 845 293 71 47 159 137 188 192 22 42 27 63 27 130 0 70 -4
87 -29 133 -79 143 -266 259 -577 360 -213 69 -337 97 -760 166 -213 35 -265
47 -276 62 -14 19 -37 90 -148 454 -70 230 -126 378 -168 449 -45 76 -143 171
-213 206 -58 29 -62 30 -204 29 -112 0 -190 -8 -340 -32 -442 -71 -559 -67
-1135 43 -147 28 -235 30 -315 9z m80 -2634 c423 -17 1483 -24 1705 -11 333
19 481 24 508 17 33 -8 52 -44 73 -133 17 -76 45 -113 109 -145 145 -73 208
-238 143 -378 -45 -100 -116 -160 -187 -160 -18 0 -47 -6 -65 -14 -38 -16 -48
-37 -151 -336 -107 -307 -183 -488 -303 -714 -169 -318 -345 -522 -530 -614
l-95 -47 -286 0 c-274 0 -289 1 -350 23 -91 33 -165 87 -265 193 -247 263
-392 533 -605 1130 -111 311 -131 353 -171 368 -18 6 -46 11 -62 11 -44 0
-105 36 -138 81 -46 64 -63 129 -58 223 6 101 26 142 108 222 34 32 101 106
148 163 102 123 131 144 187 136 22 -3 150 -10 285 -15z"/>
<path d="M6540 3393 c-193 -182 -309 -266 -415 -303 -62 -21 -93 -24 -262 -28
-213 -5 -264 2 -357 48 -132 65 -311 226 -392 351 -53 82 -78 93 -182 78 -65
-9 -442 -98 -442 -104 0 -9 466 -1008 1102 -2365 226 -480 407 -876 402 -878
-5 -2 -90 -43 -189 -92 l-180 -88 2088 -1 2087 -1 0 184 c0 745 -171 1302
-575 1870 -329 463 -773 835 -1330 1114 -354 176 -685 284 -1160 376 -15 3
-66 -39 -195 -161z"/>
<path d="M3625 3064 c-132 -74 -304 -192 -440 -300 -140 -112 -454 -426 -569
-569 -358 -447 -588 -976 -635 -1457 -13 -130 -36 -716 -29 -723 2 -3 732 -4
1620 -3 l1615 3 -174 370 c-96 204 -314 669 -485 1035 -466 997 -700 1494
-754 1602 l-49 98 -100 -56z"/>
</g>
</svg>
